<?xml version="1.0" encoding="UTF-8" standalone="no"?>
<svg
   xmlns:dc="http://purl.org/dc/elements/1.1/"
   xmlns:cc="http://creativecommons.org/ns#"
   xmlns:rdf="http://www.w3.org/1999/02/22-rdf-syntax-ns#"
   xmlns:svg="http://www.w3.org/2000/svg"
   xmlns="http://www.w3.org/2000/svg"
   xmlns:sodipodi="http://sodipodi.sourceforge.net/DTD/sodipodi-0.dtd"
   xmlns:inkscape="http://www.inkscape.org/namespaces/inkscape"
   id="flag-icon-css-pl"
   width="640"
   height="480"
   version="1.1"
   sodipodi:docname="xx.svg"
   inkscape:version="0.92.3 (2405546, 2018-03-11)">
  <metadata
     id="metadata13">
    <rdf:RDF>
      <cc:Work
         rdf:about="">
        <dc:format>image/svg+xml</dc:format>
        <dc:type
           rdf:resource="http://purl.org/dc/dcmitype/StillImage" />
        <dc:title></dc:title>
      </cc:Work>
    </rdf:RDF>
  </metadata>
  <defs
     id="defs11" />
  <sodipodi:namedview
     pagecolor="#ffffff"
     bordercolor="#666666"
     borderopacity="1"
     objecttolerance="10"
     gridtolerance="10"
     guidetolerance="10"
     inkscape:pageopacity="0"
     inkscape:pageshadow="2"
     inkscape:window-width="1920"
     inkscape:window-height="988"
     id="namedview9"
     showgrid="false"
     inkscape:zoom="0.69532167"
     inkscape:cx="214.24756"
     inkscape:cy="277.94729"
     inkscape:window-x="0"
     inkscape:window-y="312"
     inkscape:window-maximized="1"
     inkscape:current-layer="flag-icon-css-pl" />
  <g
     fill-rule="evenodd"
     id="g6"
     style="fill:#333333">
    <path
       fill="#fff"
       d="M640 480H0V0h640z"
       id="path2"
       style="fill:#333333" />
    <path
       fill="#dc143c"
       d="M640 480H0V240h640z"
       id="path4"
       style="fill:#333333" />
  </g>
  <g
     aria-label="?"
     style="font-style:normal;font-variant:normal;font-weight:normal;font-stretch:normal;font-size:486.86181641px;line-height:1.25;font-family:'Geometos Rounded';-inkscape-font-specification:'Geometos Rounded, Normal';font-variant-ligatures:normal;font-variant-caps:normal;font-variant-numeric:normal;font-feature-settings:normal;text-align:start;letter-spacing:0px;word-spacing:0px;writing-mode:lr-tb;text-anchor:start;fill:#ffffff;fill-opacity:1;stroke:none;stroke-width:12.17154503"
     id="text822">
    <path
       d="m 440.06773,112.93122 q 7.30293,17.04017 7.30293,35.54092 0,23.85623 -7.30293,40.40953 -7.78979,17.52702 -17.52703,28.23798 -10.71096,11.19783 -22.8825,18.98761 -6.32921,3.8949 -12.17155,7.30293 -5.35548,3.40803 -10.71096,6.32921 -4.38175,2.4343 -8.27665,4.38175 -3.40803,1.94745 -6.81606,3.8949 -7.30293,4.38175 -10.2241,8.76351 -8.76351,11.68468 -10.2241,23.36937 -0.97372,2.4343 -0.97372,4.86861 0,1.94745 -0.48687,4.38176 0,3.89489 -4.38175,6.81607 -3.8949,2.4343 -10.2241,2.4343 h -38.46208 q -6.32921,0 -10.71096,-4.38175 -4.38176,-4.38176 -3.8949,-10.71096 0.48686,-5.35548 1.46059,-10.71096 0.97372,-5.35548 1.94745,-11.68469 2.4343,-11.19782 7.30292,-21.90878 5.35548,-11.19782 13.63213,-22.39564 5.35548,-6.81607 10.71096,-12.65841 5.35548,-5.84234 12.17155,-9.73723 6.81606,-3.8949 12.65841,-7.30293 6.3292,-3.8949 13.14526,-7.30293 4.38176,-2.43431 8.27666,-4.38175 3.89489,-2.43431 7.30292,-4.86862 3.40804,-1.94745 5.84234,-3.8949 2.43431,-1.94744 4.86862,-4.38175 4.38176,-4.38176 5.84234,-10.2241 0.97373,-2.43431 1.46059,-5.84234 0.48686,-3.8949 0.48686,-7.78979 0,-2.92117 -1.46058,-8.76352 -1.46059,-5.84234 -7.30293,-11.68468 -6.3292,-5.84234 -16.5533,-9.73724 -11.68469,-3.89489 -30.18544,-3.89489 -16.06644,0 -27.75112,4.38176 -12.65841,5.35548 -19.96133,12.17154 -8.76352,8.76351 -12.65841,16.5533 -2.92117,4.38176 -4.38176,8.76352 -1.94744,3.89489 -6.81606,5.35548 -4.86862,1.46058 -11.19782,-0.97373 L 204.91347,148.959 q -5.84234,-1.94745 -8.76351,-6.81607 -2.92117,-4.86861 -0.48686,-10.22409 0.97372,-2.92118 2.43431,-5.84235 1.46058,-2.92117 3.40803,-6.81606 6.81606,-15.09272 22.8825,-32.619743 15.09272,-15.579579 39.43581,-28.237986 23.85623,-12.171545 59.884,-12.171545 19.96134,0 35.05406,3.408032 7.78978,1.947448 14.60585,3.894895 6.81607,1.947447 12.65841,4.381756 11.68468,5.35548 20.44819,11.684684 3.8949,3.408033 7.30293,6.329204 3.8949,2.92117 6.81607,6.329203 12.17154,13.145269 19.47447,30.67229 z M 326.14206,411.86438 h -38.46208 q -6.3292,0 -10.71096,-4.38176 -3.89489,-4.38175 -3.89489,-10.71096 v -42.35697 q 0,-6.32921 3.89489,-10.71096 4.38176,-4.38176 10.71096,-4.38176 h 38.46208 q 6.32921,0 10.71096,4.38176 4.38176,4.38175 4.38176,10.71096 v 42.35697 q 0,6.32921 -4.38176,10.71096 -4.38175,4.38176 -10.71096,4.38176 z"
       style="stroke-width:12.17154503"
       id="path824" />
  </g>
</svg>
